<svg xmlns="http://www.w3.org/2000/svg" width="512" height="512" viewBox="0 0 512 512"><path fill="#9747FF" fill-rule="evenodd" d="M255.999 426.667c94.257 0 170.666-76.41 170.666-170.667S350.256 85.333 255.999 85.333c-90.675 0-164.834 70.712-170.34 160H42.928C48.485 132.468 141.755 42.667 256 42.667c117.819 0 213.333 95.512 213.333 213.333c0 117.82-95.514 213.333-213.333 213.333c-51.263 0-98.303-18.08-135.09-48.213a214.6 214.6 0 0 1-30.093-30.108L289.829 192h-97.83v-42.667h170.666V320h-42.666v-97.83L151.345 390.825c28.9 22.464 65.215 35.842 104.654 35.842" clip-rule="evenodd"/></svg>